{
  "accessors": [
    {
      "bufferView": 2,
      "componentType": 5126,
      "count": 2965,
      "max": [
        10.450878143310547,
        4.588615894317627,
        5.348461151123047
      ],
      "min": [
        -10.388080596923828,
        -2.3423080444335938,
        -5.3125
      ],
      "type": "VEC3"
    },
    {
      "bufferView": 2,
      "byteOffset": 35580,
      "componentType": 5126,
      "count": 2965,
      "max": [
        1.0,
        1.0,
        1.0
      ],
      "min": [
        -1.0,
        -0.9999508857727051,
        -1.0
      ],
      "type": "VEC3"
    },
    {
      "bufferView": 3,
      "componentType": 5126,
      "count": 2965,
      "max": [
        0.9991576671600342,
        0.9979896545410156,
        0.997460663318634,
        1.0
      ],
      "min": [
        -0.9835048317909241,
        -1.0,
        -0.9997650384902954,
        1.0
      ],
      "type": "VEC4"
    },
    {
      "bufferView": 1,
      "componentType": 5126,
      "count": 2965,
      "max": [
        0.9954839944839478,
        0.9995120167732239
      ],
      "min": [
        0.0004879999905824661,
        0.0004879999905824661
      ],
      "type": "VEC2"
    },
    {
      "bufferView": 0,
      "componentType": 5125,
      "count": 15720,
      "type": "SCALAR"
    }
  ],
  "asset": {
    "extras": {
      "author": "vigallardo46 (https://sketchfab.com/vigallardo46)",
      "license": "SKETCHFAB Standard (https://sketchfab.com/licenses)",
      "source": "https://sketchfab.com/3d-models/htc-vive-controller-a75e66433fe640f6a5b8a640aaeffb90",
      "title": "HTC VIVE Controller"
    },
    "generator": "Sketchfab-16.11.0",
    "version": "2.0"
  },
  "bufferViews": [
    {
      "buffer": 0,
      "byteLength": 62880,
      "name": "floatBufferViews",
      "target": 34963
    },
    {
      "buffer": 0,
      "byteLength": 23720,
      "byteOffset": 62880,
      "byteStride": 8,
      "name": "floatBufferViews",
      "target": 34962
    },
    {
      "buffer": 0,
      "byteLength": 71160,
      "byteOffset": 86600,
      "byteStride": 12,
      "name": "floatBufferViews",
      "target": 34962
    },
    {
      "buffer": 0,
      "byteLength": 47440,
      "byteOffset": 157760,
      "byteStride": 16,
      "name": "floatBufferViews",
      "target": 34962
    }
  ],
  "buffers": [
    {
      "byteLength": 205200,
      "uri": "scene.bin"
    }
  ],
  "images": [
    {
      "uri": "textures/MandoText_baseColor.png"
    },
    {
      "uri": "textures/MandoText_metallicRoughness.png"
    },
    {
      "uri": "textures/MandoText_normal.png"
    }
  ],
  "materials": [
    {
      "doubleSided": true,
      "name": "MandoText",
      "normalTexture": {
        "index": 2
      },
      "pbrMetallicRoughness": {
        "baseColorTexture": {
          "index": 0
        },
        "metallicRoughnessTexture": {
          "index": 1
        }
      }
    }
  ],
  "meshes": [
    {
      "name": "PLsplplspslpslpsls:Boton3Mando_HTC_Vive1_MandoText_0",
      "primitives": [
        {
          "attributes": {
            "NORMAL": 1,
            "POSITION": 0,
            "TANGENT": 2,
            "TEXCOORD_0": 3
          },
          "indices": 4,
          "material": 0,
          "mode": 4
        }
      ]
    }
  ],
  "nodes": [
    {
      "children": [
        1
      ],
      "matrix": [
        1.0,
        0.0,
        0.0,
        0.0,
        0.0,
        2.220446049250313e-16,
        -1.0,
        0.0,
        0.0,
        1.0,
        2.220446049250313e-16,
        0.0,
        0.0,
        0.0,
        0.0,
        1.0
      ],
      "name": "Sketchfab_model"
    },
    {
      "children": [
        2
      ],
      "matrix": [
        0.009999999776482582,
        0.0,
        0.0,
        0.0,
        0.0,
        0.0,
        0.009999999776482582,
        0.0,
        0.0,
        -0.009999999776482582,
        0.0,
        0.0,
        0.0,
        0.0,
        0.0,
        1.0
      ],
      "name": "2654712c73624370bf4f421d09984fa2.fbx"
    },
    {
      "children": [
        3
      ],
      "name": "RootNode"
    },
    {
      "children": [
        4
      ],
      "name": "PLsplplspslpslpsls:Boton3Mando_HTC_Vive1"
    },
    {
      "mesh": 0,
      "name": "PLsplplspslpslpsls:Boton3Mando_HTC_Vive1_MandoText_0"
    }
  ],
  "samplers": [
    {
      "magFilter": 9729,
      "minFilter": 9987,
      "wrapS": 10497,
      "wrapT": 10497
    }
  ],
  "scene": 0,
  "scenes": [
    {
      "name": "Sketchfab_Scene",
      "nodes": [
        0
      ]
    }
  ],
  "textures": [
    {
      "sampler": 0,
      "source": 0
    },
    {
      "sampler": 0,
      "source": 1
    },
    {
      "sampler": 0,
      "source": 2
    }
  ]
}
